<svg width="21" height="20" viewBox="0 0 21 20" fill="none" xmlns="http://www.w3.org/2000/svg">
<path d="M8.3998 3.66667V2.61111H12.5998V3.66667H14.6998V2.61111C14.6985 1.44572 13.7591 0.50133 12.5998 0.5H8.3998C7.24055 0.50133 6.30113 1.44572 6.2998 2.61111V3.66667H8.3998Z" fill="#4171FF"/>
<path d="M7.3498 13.1667C6.77006 13.1668 6.29995 12.6945 6.2998 12.1117C6.2998 12.1119 6.2998 12.1115 6.2998 12.1117V10C6.2998 9.41704 6.7699 8.94446 7.3498 8.94446C7.92971 8.94446 8.3998 9.41704 8.3998 10V12.1111C8.39995 12.6939 7.92955 13.1665 7.3498 13.1667C7.34998 13.1667 7.34963 13.1667 7.3498 13.1667ZM13.6498 13.1667C13.0701 13.1668 12.6 12.6945 12.5998 12.1117C12.5998 12.1119 12.5998 12.1115 12.5998 12.1117V10C12.5998 9.41704 13.0699 8.94446 13.6498 8.94446C14.2297 8.94446 14.6998 9.41704 14.6998 10V12.1111C14.7 12.6939 14.2296 13.1665 13.6498 13.1667C13.65 13.1667 13.6496 13.1667 13.6498 13.1667Z" fill="#ECF1FF"/>
<path d="M18.9 3.66663H2.1C0.940201 3.66663 0 4.6118 0 5.77774V8.9444C0 10.1103 0.940201 11.0555 2.1 11.0555H6.3V9.99996C6.3 9.41699 6.7701 8.9444 7.35 8.9444C7.9299 8.9444 8.4 9.41699 8.4 9.99996V11.0555H12.6V9.99996C12.6 9.41699 13.0701 8.9444 13.65 8.9444C14.2299 8.9444 14.7 9.41699 14.7 9.99996V11.0555H18.9C20.0598 11.0555 21 10.1103 21 8.9444V5.77774C21 4.6118 20.0598 3.66663 18.9 3.66663Z" fill="#A0B8FF"/>
<path d="M18.9 11.0556H14.7V12.1111C14.7 12.6941 14.2299 13.1667 13.65 13.1667C13.0701 13.1667 12.6 12.6941 12.6 12.1111V11.0556H8.4V12.1111C8.4 12.6941 7.9299 13.1667 7.35 13.1667C6.7701 13.1667 6.3 12.6941 6.3 12.1111V11.0556H2.1C0.940201 11.0556 0 10.1104 0 8.94446V17.3889C0 18.5548 0.940201 19.5 2.1 19.5H18.9C20.0598 19.5 21 18.5548 21 17.3889V8.94446C21 10.1104 20.0598 11.0556 18.9 11.0556Z" fill="#4171FF"/>
</svg>
