<svg width="22" height="14" viewBox="0 0 22 14" fill="none" xmlns="http://www.w3.org/2000/svg">
<g clip-path="url(#clip0_83_4026)">
<path d="M1.76782 0H10.9988V14H1.76782C1.0679 14 0.5 13.4532 0.5 12.7794V1.22062C0.5 0.546763 1.0679 0 1.76782 0Z" fill="#D9E3FF"/>
<path d="M10.999 0H20.23C20.9299 0 21.4978 0.546763 21.4978 1.22062V12.777C21.4978 13.4508 20.9299 13.9976 20.23 13.9976H10.999V0Z" fill="#4171FF"/>
<path d="M19.5946 4.42444H13.0462C12.832 4.42444 12.6602 4.25657 12.6602 4.05273C12.6602 3.8489 12.8345 3.68103 13.0462 3.68103H19.5946C19.8088 3.68103 19.9806 3.8489 19.9806 4.05273C19.9806 4.25657 19.8063 4.42444 19.5946 4.42444Z" fill="white"/>
<path d="M9.43441 4.42444H2.88608C2.67187 4.42444 2.5 4.25657 2.5 4.05273C2.5 3.8489 2.67436 3.68103 2.88608 3.68103H9.43441C9.64862 3.68103 9.82048 3.8489 9.82048 4.05273C9.82048 4.25657 9.64613 4.42444 9.43441 4.42444Z" fill="white"/>
<path d="M19.5946 6.43396H13.0462C12.832 6.43396 12.6602 6.26609 12.6602 6.06225C12.6602 5.85842 12.8345 5.69055 13.0462 5.69055H19.5946C19.8088 5.69055 19.9806 5.85842 19.9806 6.06225C19.9806 6.26609 19.8063 6.43396 19.5946 6.43396Z" fill="white"/>
<path d="M9.43441 6.43396H2.88608C2.67187 6.43396 2.5 6.26609 2.5 6.06225C2.5 5.85842 2.67436 5.69055 2.88608 5.69055H9.43441C9.64862 5.69055 9.82048 5.85842 9.82048 6.06225C9.82048 6.26609 9.64613 6.43396 9.43441 6.43396Z" fill="white"/>
<path d="M19.5946 8.44604H13.0462C12.832 8.44604 12.6602 8.27818 12.6602 8.07434C12.6602 7.8705 12.8345 7.70264 13.0462 7.70264H19.5946C19.8088 7.70264 19.9806 7.8705 19.9806 8.07434C19.9806 8.27818 19.8063 8.44604 19.5946 8.44604Z" fill="white"/>
<path d="M9.43441 8.44604H2.88608C2.67187 8.44604 2.5 8.27818 2.5 8.07434C2.5 7.8705 2.67436 7.70264 2.88608 7.70264H9.43441C9.64862 7.70264 9.82048 7.8705 9.82048 8.07434C9.82048 8.27818 9.64613 8.44604 9.43441 8.44604Z" fill="white"/>
<path d="M19.5946 10.4558H13.0462C12.832 10.4558 12.6602 10.2879 12.6602 10.0841C12.6602 9.88027 12.8345 9.7124 13.0462 9.7124H19.5946C19.8088 9.7124 19.9806 9.88027 19.9806 10.0841C19.9806 10.2879 19.8063 10.4558 19.5946 10.4558Z" fill="white"/>
<path d="M9.43441 10.4558H2.88608C2.67187 10.4558 2.5 10.2879 2.5 10.0841C2.5 9.88027 2.67436 9.7124 2.88608 9.7124H9.43441C9.64862 9.7124 9.82048 9.88027 9.82048 10.0841C9.82048 10.2879 9.64613 10.4558 9.43441 10.4558Z" fill="white"/>
</g>
<defs>
<clipPath id="clip0_83_4026">
<rect width="21" height="14" fill="white" transform="translate(0.5)"/>
</clipPath>
</defs>
</svg>
