<svg width="20" height="20" viewBox="0 0 20 20" fill="none" xmlns="http://www.w3.org/2000/svg">
<g clip-path="url(#clip0_83_3968)">
<path d="M18.3742 1.79285H1.62598V18.541H18.3742V1.79285Z" stroke="#D9E3FF" stroke-width="2.8705" stroke-miterlimit="10"/>
<path d="M10.8777 5.2345H5.83594C5.29876 5.2345 4.86328 5.66997 4.86328 6.20716V11.2489C4.86328 11.7861 5.29876 12.2215 5.83594 12.2215H10.8777C11.4149 12.2215 11.8503 11.7861 11.8503 11.2489V6.20716C11.8503 5.66997 11.4149 5.2345 10.8777 5.2345Z" fill="#4171FF"/>
<path d="M14.7341 8.10938H9.69239C9.1552 8.10938 8.71973 8.54485 8.71973 9.08204V14.1238C8.71973 14.6609 9.1552 15.0964 9.69239 15.0964H14.7341C15.2713 15.0964 15.7068 14.6609 15.7068 14.1238V9.08204C15.7068 8.54485 15.2713 8.10938 14.7341 8.10938Z" fill="#A0B8FF"/>
<path d="M1.6259 3.2518C2.52386 3.2518 3.2518 2.52386 3.2518 1.6259C3.2518 0.72794 2.52386 0 1.6259 0C0.72794 0 0 0.72794 0 1.6259C0 2.52386 0.72794 3.2518 1.6259 3.2518Z" fill="#4171FF"/>
<path d="M1.6259 20C2.52386 20 3.2518 19.272 3.2518 18.3741C3.2518 17.4761 2.52386 16.7482 1.6259 16.7482C0.72794 16.7482 0 17.4761 0 18.3741C0 19.272 0.72794 20 1.6259 20Z" fill="#4171FF"/>
<path d="M18.3739 20C19.2719 20 19.9998 19.272 19.9998 18.3741C19.9998 17.4761 19.2719 16.7482 18.3739 16.7482C17.476 16.7482 16.748 17.4761 16.748 18.3741C16.748 19.272 17.476 20 18.3739 20Z" fill="#4171FF"/>
<path d="M18.3739 3.41586C19.2719 3.41586 19.9998 2.68792 19.9998 1.78996C19.9998 0.892002 19.2719 0.164062 18.3739 0.164062C17.476 0.164062 16.748 0.892002 16.748 1.78996C16.748 2.68792 17.476 3.41586 18.3739 3.41586Z" fill="#4171FF"/>
</g>
<defs>
<clipPath id="clip0_83_3968">
<rect width="20" height="20" fill="white"/>
</clipPath>
</defs>
</svg>
