<svg width="24" height="20" viewBox="0 0 24 20" fill="none" xmlns="http://www.w3.org/2000/svg">
<g clip-path="url(#clip0_83_3980)">
<path d="M21.6474 3.90894H2.35269C1.06143 3.90894 0.0146484 4.82542 0.0146484 5.95595V15.9531C0.0146484 17.0836 1.06143 18.0001 2.35269 18.0001H21.6474C22.9386 18.0001 23.9854 17.0836 23.9854 15.9531V5.95595C23.9854 4.82542 22.9386 3.90894 21.6474 3.90894Z" fill="#D9E3FF"/>
<path d="M2.33804 2H21.662C22.9537 2 24 2.91604 24 4.04702V6.72605H0V4.04702C0 2.91604 1.04627 2 2.33804 2Z" fill="#4171FF"/>
<path d="M2.51432 5.0555C2.88251 5.0555 3.18099 4.75702 3.18099 4.38883C3.18099 4.02064 2.88251 3.72217 2.51432 3.72217C2.14613 3.72217 1.84766 4.02064 1.84766 4.38883C1.84766 4.75702 2.14613 5.0555 2.51432 5.0555Z" fill="white"/>
<path d="M5.17057 5.0555C5.53876 5.0555 5.83724 4.75702 5.83724 4.38883C5.83724 4.02064 5.53876 3.72217 5.17057 3.72217C4.80238 3.72217 4.50391 4.02064 4.50391 4.38883C4.50391 4.75702 4.80238 5.0555 5.17057 5.0555Z" fill="white"/>
<path d="M7.82975 5.0555C8.19794 5.0555 8.49642 4.75702 8.49642 4.38883C8.49642 4.02064 8.19794 3.72217 7.82975 3.72217C7.46156 3.72217 7.16309 4.02064 7.16309 4.38883C7.16309 4.75702 7.46156 5.0555 7.82975 5.0555Z" fill="white"/>
<path d="M10.7998 14.0702L13.1934 9.35437" stroke="#4171FF" stroke-miterlimit="10" stroke-linecap="round"/>
<path d="M15.6639 9.35437L18.2416 11.6138L15.5996 13.9269" stroke="#4171FF" stroke-linecap="round" stroke-linejoin="round"/>
<path d="M8.27104 9.37439L5.69043 11.6338L8.33242 13.9469" stroke="#4171FF" stroke-linecap="round" stroke-linejoin="round"/>
</g>
<defs>
<clipPath id="clip0_83_3980">
<rect width="24" height="16" fill="white" transform="translate(0 2)"/>
</clipPath>
</defs>
</svg>
