<svg width="21" height="22" viewBox="0 0 21 22" fill="none" xmlns="http://www.w3.org/2000/svg">
<rect y="0.5" width="21" height="21" rx="3" fill="#D9E3FF"/>
<path d="M12.124 13.4779C12.0066 13.4778 11.8919 13.4421 11.7942 13.3752C11.6966 13.3082 11.6206 13.2131 11.5756 13.1018C11.5307 12.9906 11.519 12.8681 11.5419 12.75C11.5648 12.6318 11.6213 12.5233 11.7043 12.4381L15.86 8.1745C15.9717 8.06199 16.1221 7.99928 16.2786 8.00001C16.4351 8.00073 16.585 8.06484 16.6957 8.17838C16.8064 8.29192 16.8688 8.4457 16.8696 8.60627C16.8703 8.76683 16.8091 8.92119 16.6995 9.03575L12.5437 13.2994C12.4887 13.3561 12.4233 13.401 12.3512 13.4316C12.2792 13.4622 12.202 13.478 12.124 13.4779V13.4779ZM5.59355 14.087C5.47615 14.0869 5.36139 14.0512 5.26379 13.9843C5.16618 13.9173 5.09011 13.8222 5.04518 13.7109C5.00026 13.5997 4.9885 13.4772 5.0114 13.3591C5.0343 13.2409 5.09082 13.1324 5.17382 13.0472L8.73589 9.39268C8.84755 9.28018 8.998 9.21746 9.1545 9.21819C9.31101 9.21892 9.4609 9.28303 9.57156 9.39656C9.68223 9.5101 9.74471 9.66389 9.74542 9.82445C9.74613 9.98502 9.68501 10.1394 9.57535 10.2539L6.01328 13.9085C5.95823 13.9651 5.89281 14.0101 5.82078 14.0407C5.74874 14.0713 5.67152 14.087 5.59355 14.087Z" fill="#4171FF"/>
<path d="M12.13 13.4783C12.0615 13.4783 11.9935 13.4655 11.9302 13.4405C11.8668 13.4155 11.8092 13.3788 11.7608 13.3325L9.14961 10.8457C9.05315 10.7522 8.99938 10.6262 9.00001 10.4951C9.00063 10.3639 9.05559 10.2384 9.15294 10.1457C9.25029 10.0529 9.38215 10.0006 9.51982 10C9.65749 9.99941 9.78984 10.0506 9.88806 10.1425L12.4993 12.6293C12.5723 12.6988 12.622 12.7874 12.6421 12.8839C12.6623 12.9804 12.6519 13.0804 12.6124 13.1712C12.5729 13.2621 12.506 13.3398 12.4201 13.3944C12.3343 13.4491 12.2333 13.4782 12.13 13.4783Z" fill="#4171FF"/>
</svg>
