<svg width="24" height="14" viewBox="0 0 24 14" fill="none" xmlns="http://www.w3.org/2000/svg">
<g clip-path="url(#clip0_83_4015)">
<path d="M1.9975 0H12.3552C13.1018 0 13.7092 0.625053 13.7092 1.39343V8.79454C13.7092 9.56292 13.1018 10.188 12.3552 10.188H0.643555V1.39343C0.643555 0.625053 1.2509 0 1.9975 0Z" fill="#4171FF"/>
<path d="M23.5 13.9999L11.9837 13.9999C11.241 13.9999 10.6363 13.3828 10.6363 12.6204L10.6363 5.18941C10.6363 4.429 11.239 3.80992 11.9837 3.80992L22.1545 3.80992C22.8973 3.80992 23.502 4.42701 23.502 5.18941V13.9999H23.5Z" fill="#D9E3FF"/>
<path d="M6.00648 5.98778L5.41789 7.50662C5.35336 7.66785 5.23213 7.73952 5.08156 7.73952C4.87428 7.73952 4.65918 7.6161 4.65918 7.39713C4.65918 7.3394 4.67287 7.27968 4.7022 7.20802L6.64592 2.39671C6.75347 2.13394 6.89621 2.00256 7.13282 2.00256C7.39094 2.00256 7.54151 2.13394 7.64906 2.39671L9.54976 7.20205C9.57909 7.25978 9.58496 7.31154 9.58496 7.36329C9.58496 7.56832 9.41288 7.73554 9.15476 7.73554C8.99637 7.73554 8.86731 7.66985 8.80278 7.50263L8.22983 5.99176H6.00648V5.98778ZM8.00104 5.33087L7.54933 4.12655C7.38508 3.69658 7.24037 3.25068 7.13282 2.86251C7.01745 3.24272 6.88253 3.68065 6.71045 4.12655L6.25092 5.33087H8.00104Z" fill="white"/>
<path d="M17.3578 7.70769C17.2404 7.70769 17.127 7.64797 17.0605 7.54048L16.3429 6.37597C16.2392 6.20875 16.2901 5.9878 16.4543 5.88229C16.6186 5.77679 16.8356 5.82855 16.9393 5.99576L17.6569 7.16027C17.7606 7.32748 17.7097 7.54844 17.5455 7.65394C17.4868 7.69176 17.4223 7.70968 17.3597 7.70968L17.3578 7.70769Z" fill="#4171FF"/>
<path d="M19.7693 7.74555H14.5405C14.3469 7.74555 14.1885 7.5863 14.1885 7.38724C14.1885 7.18818 14.3449 7.02893 14.5405 7.02893H19.7693C19.9629 7.02893 20.1213 7.18818 20.1213 7.38724C20.1213 7.5863 19.9649 7.74555 19.7693 7.74555Z" fill="#4171FF"/>
<path d="M19.5877 11.9854C19.5603 11.9854 19.5329 11.9815 19.5055 11.9755C16.6173 11.2748 15.5966 8.49389 15.5555 8.37645C15.489 8.19132 15.5829 7.98629 15.7667 7.9186C15.9486 7.85092 16.15 7.94647 16.2165 8.1316C16.2262 8.15748 17.157 10.6696 19.6698 11.2788C19.8575 11.3245 19.9748 11.5176 19.9299 11.7107C19.8908 11.8759 19.748 11.9854 19.5877 11.9854Z" fill="#4171FF"/>
<path d="M14.7158 11.7387C14.5613 11.7387 14.4205 11.6351 14.3775 11.4779C14.3247 11.2868 14.4342 11.0897 14.622 11.038C17.7624 10.1442 18.261 7.39314 18.2669 7.36726C18.3002 7.17218 18.4801 7.04279 18.6736 7.07464C18.8653 7.10848 18.9924 7.29361 18.9611 7.48869C18.9396 7.62007 18.3764 10.7135 14.8136 11.7287C14.7823 11.7387 14.751 11.7426 14.7197 11.7426L14.7158 11.7387Z" fill="#4171FF"/>
</g>
<defs>
<clipPath id="clip0_83_4015">
<rect width="23" height="14" fill="white" transform="translate(0.5)"/>
</clipPath>
</defs>
</svg>
