<svg width="18" height="22" viewBox="0 0 18 22" fill="none" xmlns="http://www.w3.org/2000/svg">
<path d="M16.0939 4.19869L13.328 1.88851C12.9808 1.59843 12.4699 1.65202 12.1871 2.00819L2.69676 13.9591C2.41392 14.3153 2.46616 14.8391 2.81345 15.1292L5.57926 17.4394C5.92655 17.7295 6.43737 17.6759 6.72021 17.3197L16.2105 5.36883C16.4934 5.01266 16.4411 4.48877 16.0939 4.19869Z" fill="#A0B8FF"/>
<path d="M13.6873 1.07521L16.797 3.67263C17.05 3.88396 17.0879 4.26333 16.8818 4.52281L15.4535 6.32149L11.43 2.96085L12.8584 1.16217C13.0644 0.902694 13.4343 0.863893 13.6873 1.07521Z" fill="#4171FF"/>
<path d="M2.59283 19.0919L6.45986 17.5826C6.6637 17.5027 6.70845 17.2266 6.538 17.0848L2.98755 14.1197C2.8171 13.9778 2.56304 14.0779 2.52665 14.2986L1.86719 18.4853C1.80154 18.905 2.20523 19.2415 2.59283 19.0919Z" fill="#D9E3FF"/>
<path d="M2.17309 19.2445L3.66426 18.6632L2.06348 17.3256L1.80928 18.9391C1.77595 19.1505 1.9783 19.3172 2.17411 19.2414L2.17309 19.2445Z" fill="#4171FF"/>
<path d="M17.5247 21.4999H0.475182C0.212248 21.4999 0 21.2823 0 21.0126C0 20.7429 0.212248 20.5253 0.475182 20.5253H17.5247C17.7877 20.5253 17.9999 20.7429 17.9999 21.0126C17.9999 21.2823 17.7877 21.4999 17.5247 21.4999Z" fill="#A0B8FF"/>
</svg>
