<svg width="14" height="17" viewBox="0 0 14 17" fill="none" xmlns="http://www.w3.org/2000/svg">
<path d="M5.48004 15.9616C4.31545 15.6658 3.3667 14.743 2.85248 13.3649C2.01196 11.0947 2.34932 7.59516 4.41234 4.89729C3.79772 4.54263 3.05948 4.22402 1.78963 3.9015L0.46886 3.56605L1.11659 0.812179L2.43736 1.14763C4.61715 1.70125 5.64676 2.32614 6.561 2.93672C7.93138 2.0822 9.72632 1.36548 11.5701 0.945882L12.9006 0.643191L13.4798 3.41271L12.1493 3.7154C11.005 3.9755 9.87503 4.37408 8.91576 4.84224C10.6193 6.9158 10.9186 9.85025 10.3567 12.1014C9.75992 14.5011 8.24424 16.0193 6.40211 16.0647C6.08337 16.0736 5.77544 16.0366 5.48344 15.9625L5.48004 15.9616ZM6.67244 6.50155C5.19972 8.3266 4.83144 10.8255 5.39549 12.3437C5.73031 13.2454 6.18979 13.2347 6.34154 13.2321C6.98158 13.2185 7.49282 12.2994 7.72009 11.3943C8.11712 9.79809 7.84833 7.77424 6.67244 6.50155Z" fill="url(#paint0_linear_70_2132)"/>
<defs>
<linearGradient id="paint0_linear_70_2132" x1="7.9401" y1="-0.616684" x2="3.83563" y2="15.544" gradientUnits="userSpaceOnUse">
<stop stop-color="#3A6CFF"/>
<stop offset="1" stop-color="#FFE4E0"/>
</linearGradient>
</defs>
</svg>
