<svg width="70" height="70" viewBox="0 0 70 70" fill="none" xmlns="http://www.w3.org/2000/svg">
<rect x="0.5" y="0.5" width="69" height="69" rx="4.5" fill="white"/>
<rect x="0.5" y="0.5" width="69" height="69" rx="4.5" stroke="#E3E3E3"/>
<path d="M42.368 27.631C41.6189 27.631 40.9312 27.2012 40.5873 26.538L39.7031 24.7573C39.1382 23.6398 37.6645 22.7188 36.4119 22.7188H33.5996C32.3347 22.7188 30.861 23.6398 30.2961 24.7573L29.4119 26.538C29.068 27.2012 28.3803 27.631 27.6312 27.631C24.9663 27.631 22.854 29.8784 23.0259 32.531L23.6645 42.6749C23.8119 45.2047 25.175 47.2802 28.5645 47.2802H41.4347C44.8242 47.2802 46.175 45.2047 46.3347 42.6749L46.9733 32.531C47.1452 29.8784 45.0329 27.631 42.368 27.631ZM33.1575 29.1661H36.8417C37.3452 29.1661 37.7628 29.5837 37.7628 30.0872C37.7628 30.5907 37.3452 31.0082 36.8417 31.0082H33.1575C32.654 31.0082 32.2364 30.5907 32.2364 30.0872C32.2364 29.5837 32.654 29.1661 33.1575 29.1661ZM34.9996 42.5152C32.7154 42.5152 30.8487 40.6609 30.8487 38.3644C30.8487 36.0679 32.7031 34.2135 34.9996 34.2135C37.2961 34.2135 39.1505 36.0679 39.1505 38.3644C39.1505 40.6609 37.2838 42.5152 34.9996 42.5152Z" fill="#B5B5B5"/>
</svg>
