<svg width="18" height="19" viewBox="0 0 18 19" fill="none" xmlns="http://www.w3.org/2000/svg">
<path d="M9 17.3955C4.5525 17.3955 0.9375 13.7805 0.9375 9.33301C0.9375 4.88551 4.5525 1.27051 9 1.27051C13.4475 1.27051 17.0625 4.88551 17.0625 9.33301C17.0625 13.7805 13.4475 17.3955 9 17.3955ZM9 2.39551C5.175 2.39551 2.0625 5.50801 2.0625 9.33301C2.0625 13.158 5.175 16.2705 9 16.2705C12.825 16.2705 15.9375 13.158 15.9375 9.33301C15.9375 5.50801 12.825 2.39551 9 2.39551Z" fill="#909090"/>
<path d="M12 9.89551H6C5.6925 9.89551 5.4375 9.64051 5.4375 9.33301C5.4375 9.02551 5.6925 8.77051 6 8.77051H12C12.3075 8.77051 12.5625 9.02551 12.5625 9.33301C12.5625 9.64051 12.3075 9.89551 12 9.89551Z" fill="#909090"/>
</svg>
