<svg width="20" height="19" viewBox="0 0 20 19" fill="none" xmlns="http://www.w3.org/2000/svg">
  <path fill-rule="evenodd" clip-rule="evenodd" d="M10 15.9871C6.14109 15.9871 3.01282 12.8588 3.01282 8.99988C3.01282 5.14096 6.14109 2.0127 10 2.0127C13.8589 2.0127 16.9872 5.14096 16.9872 8.99988C16.9872 12.8588 13.8589 15.9871 10 15.9871ZM1.98718 8.99988C1.98718 13.4252 5.57464 17.0127 10 17.0127C14.4254 17.0127 18.0128 13.4252 18.0128 8.99988C18.0128 4.57452 14.4254 0.987053 10 0.987053C5.57464 0.987053 1.98718 4.57452 1.98718 8.99988Z" fill="#B5B5B5"/>
  <path fill-rule="evenodd" clip-rule="evenodd" d="M9.66586 16.8887C9.66607 16.8888 9.66627 16.889 10 16.4997C10.3338 16.1103 10.3339 16.1104 10.3341 16.1106L10.3347 16.1111C10.3343 16.1107 10.3332 16.1098 10.3315 16.1083C10.328 16.1052 10.3219 16.0997 10.3133 16.0919C10.2961 16.0762 10.2691 16.0509 10.2335 16.0161C10.1625 15.9465 10.0577 15.8389 9.93022 15.6932C9.67519 15.4017 9.33058 14.9593 8.98464 14.3663C8.29392 13.1822 7.59617 11.3954 7.59617 8.99965C7.59617 6.60393 8.29392 4.81715 8.98464 3.63305C9.33058 3.04001 9.67519 2.59756 9.93022 2.3061C10.0577 2.16044 10.1625 2.05279 10.2335 1.98318C10.2691 1.94838 10.2961 1.92313 10.3133 1.90743C10.3219 1.89957 10.328 1.89411 10.3315 1.89104C10.3332 1.88951 10.3343 1.88857 10.3347 1.88823L10.3344 1.88848L10.3341 1.88872C10.3339 1.88886 10.3338 1.88901 10 1.49965C9.66627 1.11029 9.66607 1.11046 9.66586 1.11064L9.66424 1.11205L9.66114 1.11473C9.65872 1.11684 9.65561 1.11956 9.65183 1.12291C9.64426 1.12961 9.634 1.13879 9.62122 1.15047C9.59567 1.17383 9.56006 1.20717 9.51583 1.2505C9.42738 1.33714 9.30434 1.46386 9.15835 1.63071C8.8665 1.96425 8.48194 2.4593 8.09872 3.11626C7.33111 4.43216 6.57053 6.39537 6.57053 8.99965C6.57053 11.6039 7.33111 13.5671 8.09872 14.883C8.48194 15.54 8.8665 16.0351 9.15835 16.3686C9.30434 16.5354 9.42738 16.6622 9.51583 16.7488C9.56006 16.7921 9.59567 16.8255 9.62122 16.8488C9.634 16.8605 9.64426 16.8697 9.65183 16.8764C9.65561 16.8797 9.65872 16.8825 9.66114 16.8846L9.66424 16.8873L9.66539 16.8883L9.66586 16.8887ZM10.3347 16.1111L10.3347 16.1111C10.3349 16.1112 10.3349 16.1113 10.3347 16.1111Z" fill="#B5B5B5"/>
  <path fill-rule="evenodd" clip-rule="evenodd" d="M9.66592 16.1106C9.66609 16.1104 9.66626 16.1103 10 16.4997C10.3337 16.889 10.3339 16.8888 10.3342 16.8887L10.3346 16.8883L10.3358 16.8873L10.3389 16.8846C10.3413 16.8825 10.3444 16.8797 10.3482 16.8764C10.3558 16.8697 10.366 16.8605 10.3788 16.8488C10.4043 16.8255 10.44 16.7921 10.4842 16.7488C10.5726 16.6622 10.6957 16.5354 10.8417 16.3686C11.1335 16.0351 11.5181 15.54 11.9013 14.883C12.6689 13.5671 13.4295 11.6039 13.4295 8.99965C13.4295 6.39537 12.6689 4.43216 11.9013 3.11626C11.5181 2.4593 11.1335 1.96425 10.8417 1.63071C10.6957 1.46386 10.5726 1.33714 10.4842 1.2505C10.44 1.20717 10.4043 1.17383 10.3788 1.15047C10.366 1.13879 10.3558 1.12961 10.3482 1.12291C10.3462 1.12112 10.3443 1.11951 10.3427 1.11808C10.3413 1.11683 10.34 1.11571 10.3389 1.11473L10.3358 1.11205L10.3342 1.11064C10.3339 1.11046 10.3337 1.11029 10 1.49965C9.66626 1.88901 9.66609 1.88886 9.66592 1.88872L9.66564 1.88848L9.66535 1.88823C9.66574 1.88857 9.66682 1.88951 9.66855 1.89104C9.67202 1.89411 9.67814 1.89957 9.68672 1.90743C9.7039 1.92313 9.73095 1.94838 9.76647 1.98318C9.83753 2.05279 9.94235 2.16044 10.0698 2.3061C10.3248 2.59756 10.6694 3.04001 11.0154 3.63305C11.7061 4.81715 12.4038 6.60393 12.4038 8.99965C12.4038 11.3954 11.7061 13.1822 11.0154 14.3663C10.6694 14.9593 10.3248 15.4017 10.0698 15.6932C9.94235 15.8389 9.83753 15.9465 9.76647 16.0161C9.73095 16.0509 9.7039 16.0762 9.68672 16.0919C9.67814 16.0997 9.67202 16.1052 9.66855 16.1083C9.66682 16.1098 9.66574 16.1107 9.66535 16.1111C9.66526 16.1112 9.6652 16.1112 9.66519 16.1112L9.66529 16.1111L9.66564 16.1108L9.66592 16.1106Z" fill="#B5B5B5"/>
  <path fill-rule="evenodd" clip-rule="evenodd" d="M17.5 8.48705H2.5V9.5127H17.5V8.48705Z" fill="#B5B5B5"/>
  <path fill-rule="evenodd" clip-rule="evenodd" d="M3.75 13.2627H16.25V12.2371H3.75V13.2627Z" fill="#B5B5B5"/>
  <g filter="url(#filter0_d_5192_3646)">
  <path fill-rule="evenodd" clip-rule="evenodd" d="M3.75 5.7627H16.25V4.73705H3.75V5.7627Z" fill="#B5B5B5"/>
  </g>
  <defs>
  <filter id="filter0_d_5192_3646" x="-29.5833" y="4.7373" width="79.1667" height="67.6921" filterUnits="userSpaceOnUse" color-interpolation-filters="sRGB">
  <feFlood flood-opacity="0" result="BackgroundImageFix"/>
  <feColorMatrix in="SourceAlpha" type="matrix" values="0 0 0 0 0 0 0 0 0 0 0 0 0 0 0 0 0 0 127 0" result="hardAlpha"/>
  <feOffset dy="33.3333"/>
  <feGaussianBlur stdDeviation="16.6667"/>
  <feColorMatrix type="matrix" values="0 0 0 0 0 0 0 0 0 0 0 0 0 0 0 0 0 0 0.1 0"/>
  <feBlend mode="normal" in2="BackgroundImageFix" result="effect1_dropShadow_5192_3646"/>
  <feBlend mode="normal" in="SourceGraphic" in2="effect1_dropShadow_5192_3646" result="shape"/>
  </filter>
  </defs>
  </svg>
  