<svg width="16" height="16" viewBox="0 0 16 16" fill="none" xmlns="http://www.w3.org/2000/svg">
  <path d="M10.6668 1.33301H5.3335C2.66683 1.33301 1.3335 2.66634 1.3335 5.33301V13.9997C1.3335 14.3663 1.6335 14.6663 2.00016 14.6663H10.6668C13.3335 14.6663 14.6668 13.333 14.6668 10.6663V5.33301C14.6668 2.66634 13.3335 1.33301 10.6668 1.33301Z" stroke="white" stroke-width="1.3" stroke-linecap="round" stroke-linejoin="round"/>
  <path d="M8.60685 5.22677L5.14685 8.68677C5.01352 8.8201 4.88686 9.0801 4.86019 9.26677L4.67353 10.5868C4.60686 11.0668 4.94019 11.4001 5.42019 11.3334L6.74018 11.1468C6.92684 11.1201 7.18686 10.9934 7.32019 10.8601L10.7802 7.4001C11.3735 6.80677 11.6602 6.11343 10.7802 5.23343C9.90019 4.34677 9.20685 4.62677 8.60685 5.22677Z" stroke="white" stroke-width="1.3" stroke-miterlimit="10" stroke-linecap="round" stroke-linejoin="round"/>
  <path d="M8.11328 5.71973C8.40661 6.76639 9.22661 7.59306 10.2799 7.88639" stroke="white" stroke-width="1.3" stroke-miterlimit="10" stroke-linecap="round" stroke-linejoin="round"/>
  </svg>
  