<svg width="15" height="12" viewBox="0 0 15 12" fill="none" xmlns="http://www.w3.org/2000/svg">
<path d="M13.6504 0.491573C13.4339 0.498024 13.2284 0.588507 13.0775 0.743852L4.50003 9.32133L1.75589 6.57719C1.6791 6.49721 1.58713 6.43336 1.48535 6.38937C1.38358 6.34538 1.27405 6.32214 1.16318 6.32101C1.05232 6.31989 0.94234 6.34089 0.839692 6.3828C0.737044 6.42471 0.64379 6.48667 0.565391 6.56507C0.486992 6.64347 0.425024 6.73673 0.383117 6.83937C0.341209 6.94202 0.320204 7.052 0.321332 7.16287C0.32246 7.27373 0.345698 7.38326 0.389686 7.48503C0.433673 7.58681 0.497526 7.67878 0.577503 7.75557L3.91084 11.0889C4.06712 11.2451 4.27905 11.3329 4.50003 11.3329C4.72101 11.3329 4.93294 11.2451 5.08922 11.0889L14.2559 1.92224C14.3763 1.80519 14.4586 1.65448 14.4919 1.48988C14.5252 1.32528 14.5079 1.15446 14.4425 0.99981C14.377 0.845155 14.2664 0.713881 14.1251 0.62319C13.9837 0.532499 13.8183 0.486623 13.6504 0.491573Z" fill="#4171FF"/>
</svg>
