<svg width="14" height="15" viewBox="0 0 14 15" fill="none" xmlns="http://www.w3.org/2000/svg">
<path d="M11.5665 0.5C11.268 0.5 10.9694 0.614005 10.7416 0.841797L9.33341 2.25L12.2501 5.16667L13.6583 3.75846C14.1139 3.30288 14.1139 2.56431 13.6583 2.10872L12.3914 0.841797C12.1636 0.614005 11.865 0.5 11.5665 0.5ZM8.16673 3.41667L1.31821 10.2651C1.31821 10.2651 1.85357 10.2172 2.05308 10.4167C2.25258 10.6162 2.08835 11.9217 2.33335 12.1667C2.57835 12.4117 3.87563 12.2392 4.06172 12.4253C4.2478 12.6114 4.2349 13.1818 4.2349 13.1818L11.0834 6.33333L8.16673 3.41667ZM0.583338 12.1667L0.0330406 13.7253C0.0114074 13.7868 0.000239072 13.8515 0 13.9167C0 14.0714 0.0614586 14.2197 0.170856 14.3291C0.280253 14.4385 0.428627 14.5 0.583338 14.5C0.648539 14.4998 0.713238 14.4886 0.774746 14.467C0.776649 14.4662 0.778547 14.4655 0.780442 14.4647L0.795254 14.4601C0.796396 14.4594 0.797535 14.4586 0.798672 14.4578L2.33335 13.9167L1.45834 13.0417L0.583338 12.1667Z" fill="#909090"/>
</svg>
